<svg xmlns="http://www.w3.org/2000/svg" width="20" height="23" viewBox="0 0 20 23">
  <defs>
    <style>
      .cls-1 {
        fill: #40c0fe;
        opacity: 0.612;
      }
    </style>
  </defs>
  <path id="Combined_Shape_Copy_44" data-name="Combined Shape Copy 44" class="cls-1" d="M10,23C4.486,23,0,19.055,0,14.206S4.486,5.412,10,5.412s10,3.945,10,8.794S15.514,23,10,23ZM5.882,15.779a2.891,2.891,0,0,0,1.069,2.4,4.211,4.211,0,0,0,2.291.857v1.256h1.439V19.04a5.765,5.765,0,0,0,2.186-.636,2.333,2.333,0,0,0,1.248-2.223,2.154,2.154,0,0,0-.985-1.9,4.736,4.736,0,0,0-1.617-.593l-.833-.172v-3.15a2.229,2.229,0,0,1,1.367.672,2.225,2.225,0,0,1,.45,1.153h1.315a2.486,2.486,0,0,0-1.136-2.271,4.77,4.77,0,0,0-2-.668V8.118H9.243v1.12a3.7,3.7,0,0,0-2.052.776,2.594,2.594,0,0,0-.964,2.071,1.917,1.917,0,0,0,.985,1.751,6.815,6.815,0,0,0,1.941.618l.09.018v3.47a2.413,2.413,0,0,1-1.63-.87A2.4,2.4,0,0,1,7.2,15.779Zm4.707,1.809h0V14.882a7.659,7.659,0,0,1,1.753.446.947.947,0,0,1,.6.921c0,.571-.479.974-1.423,1.2A6.324,6.324,0,0,1,10.589,17.588ZM9.412,13.53h0a6.636,6.636,0,0,1-1.1-.308,1,1,0,0,1-.662-.951,1.3,1.3,0,0,1,.566-1.036,2.369,2.369,0,0,1,1.2-.411v2.705Zm2.37-9.471H7.929L6.471,0H13.53L11.782,4.058Z"/>
</svg>
