<svg xmlns="http://www.w3.org/2000/svg" xmlns:xlink="http://www.w3.org/1999/xlink" width="20" height="20" viewBox="0 0 20 20">
  <defs>
    <style>
      .cls-1 {
        opacity: 0.496;
        fill: url(#linear-gradient);
      }
    </style>
    <linearGradient id="linear-gradient" x1="0.217" y1="0.092" x2="0.783" y2="0.87" gradientUnits="objectBoundingBox">
      <stop offset="0" stop-color="#fceb3c"/>
      <stop offset="1" stop-color="#fceb3c"/>
    </linearGradient>
  </defs>
  <path id="Combined_Shape_Copy_61" data-name="Combined Shape Copy 61" class="cls-1" d="M6.064,19.988a.522.522,0,0,1-.307-.222L3.4,16.289a3.516,3.516,0,0,1-.705.039A1.087,1.087,0,0,1,1.7,15.167a1.175,1.175,0,0,1,.037-.25,4.188,4.188,0,0,1,.252-.706L.105,11.44a.513.513,0,0,1,.051-.685.369.369,0,0,1,.329-.06l3.929,1.06L8.724,8.4,3.451,2.8A1.577,1.577,0,0,1,3.443.68,1.484,1.484,0,0,1,3.614.523L3.708.45A2.082,2.082,0,0,1,6.223.4l6.67,4.766,4.521-3.515a1.56,1.56,0,0,1,2.275.386,1.824,1.824,0,0,1-.36,2.435L15.051,7.795l2.409,9.157a2.445,2.445,0,0,1-.823,2.543l-.095.074a1.336,1.336,0,0,1-.823.286,1.373,1.373,0,0,1-1.136-.618,1.505,1.505,0,0,1-.118-.206l-3.719-7.888L6.88,14.149l-.343,5.46A.388.388,0,0,1,6.159,20,.408.408,0,0,1,6.064,19.988Z" transform="translate(0)"/>
</svg>
