<svg xmlns="http://www.w3.org/2000/svg" xmlns:xlink="http://www.w3.org/1999/xlink" width="24" height="17" viewBox="0 0 24 17">
  <defs>
    <style>
      .cls-1 {
        opacity: 0.612;
        fill: url(#linear-gradient);
      }
    </style>
    <linearGradient id="linear-gradient" x1="0.5" x2="0.5" y2="1" gradientUnits="objectBoundingBox">
      <stop offset="0" stop-color="#fceb3c"/>
      <stop offset="1" stop-color="#fceb3c"/>
    </linearGradient>
  </defs>
  <path id="Combined_Shape" data-name="Combined Shape" class="cls-1" d="M4.42,16.346V5.414S2.451,8.955,2.133,9.384c.363,0,.711.742.711.954V16.72c-.344.552-.711.159-.711-.229V10.338A.7.7,0,0,0,1.4,9.8a.661.661,0,0,0-.708.667.349.349,0,0,1-.67.169c-.131-.382.266-1.084.743-1.4-.2-.211,0-.753,0-.753s2.7-4.555,2.926-5.108,1.516-.3,1.516-.3a2.348,2.348,0,0,0,3.081,0H9.36c.234,0,.519.3.519.3s1.814,3.224,2.289,4c1.033-.9,3.08-3.33,3.58-3.563a1.968,1.968,0,0,0,2.446.291c.275-.166.451-.33.528-.291.214.11,3.832,3.861,4.035,4.064a.936.936,0,0,1,.2.7A1.529,1.529,0,0,1,24,10.019a.386.386,0,0,1-.661,0c-.055-.336-.122-.832-.682-.832s-.665.614-.665.614V16.72c-.3.546-.635,0-.635,0V9.8a1.243,1.243,0,0,1,.311-.784S19.922,7.2,19.922,7.249a14.308,14.308,0,0,1,.169,5.657h-.986v3.53c-.744,1.129-1.531.2-1.531-.09v-3.44H16.84v3.44a.791.791,0,0,1-1.538,0v-3.44h-1a14.467,14.467,0,0,1,.2-5.657s-1.154,1.121-1.67,1.706a.823.823,0,0,1-1.481.429C10.267,7.44,9.125,5.414,9.125,5.414V16.346a.88.88,0,0,1-1.679,0v-5.21H6.088v5.21c-.255.485-.561.654-.841.654A.906.906,0,0,1,4.42,16.346ZM15.487,2.354A1.643,1.643,0,1,1,17.13,3.988,1.638,1.638,0,0,1,15.487,2.354ZM5.153,1.634A1.642,1.642,0,1,1,6.8,3.269,1.638,1.638,0,0,1,5.153,1.634Z" transform="translate(0)"/>
</svg>
