<svg xmlns="http://www.w3.org/2000/svg" width="17" height="23" viewBox="0 0 17 23">
  <defs>
    <style>
      .cls-1 {
        fill: #f6a825;
        opacity: 0.546;
      }
    </style>
  </defs>
  <path id="Combined_Shape_Copy_2" data-name="Combined Shape Copy 2" class="cls-1" d="M.856,21.785c.752-2.225,2.046-5.5,2.046-5.5V13.063S1.819,14.5,1.488,15s-1.72.144-1.454-.755,2.238-3,3.045-3.783A1.937,1.937,0,0,1,5.27,10.2a.971.971,0,0,0,.69.262,27.087,27.087,0,0,0,3.077-1.3,1.459,1.459,0,0,1,0-.849c.154-.322,0-.171,0-.171V4.109c0-.232-.692.233-.828.428s-.27.282-.432,0-.109-.428-1.058-.563-1.207.368-1.559.563S4.527,2.663,6.282,1.013,11.058.065,12.213.761A4.13,4.13,0,0,1,13.63,3.4s.31,1.562-.4.943-1.35-.272-1.809-.233-.543,1.178-.824.589a1.022,1.022,0,0,0-.771-.628L9.676,8.149l.154.171A5.123,5.123,0,0,1,9.676,10.2c-.276.83-2.316,1.452-3.715,1.984v4.46s1.713,4.533,1.979,5.32-1.174,1.5-1.754.594c-.753-1.983-1.765-4.946-1.765-4.946S3.351,20.15,2.43,22.561A1.029,1.029,0,0,1,1.66,23,.927.927,0,0,1,.856,21.785Zm11.619,1.193a.936.936,0,0,1-.6-.482c0-3.947.111-6.75.111-9.668-.281,0-.41,1.713-.41,2.307s-.357.611-.889.611-.5-2.161,0-3.494,2-2.276,4.135-1.728,2.3,3.518,2.138,4.769a.653.653,0,0,1-1.3,0c0-1.411-.218-2.632-.366-2.465,0,2.918.148,8.061.148,9.553a.826.826,0,0,1-1.591,0c0-.429-.1-4.771-.1-5.221s-.2-.174-.2-.174-.151,3.437-.151,5.395c-.259.462-.535.611-.779.611A.632.632,0,0,1,12.475,22.977ZM12.105,8.44a1.511,1.511,0,1,1,1.511,1.493A1.5,1.5,0,0,1,12.105,8.44Zm-9.065-.4a1.569,1.569,0,1,1,1.569,1.55A1.559,1.559,0,0,1,3.04,8.039Z" transform="translate(0 0)"/>
</svg>
